REM MD5 7250ee2784e0b5cf9b7a1751aa2505e2
FILE "Next Wave Herbst '98 (Germany).bin" BINARY
  TRACK 01 MODE2/2352
    INDEX 01 00:00:00
  TRACK 02 AUDIO
    INDEX 00 23:12:12
    INDEX 01 23:14:12
  TRACK 03 AUDIO
    INDEX 00 24:53:46
    INDEX 01 24:55:46
  TRACK 04 AUDIO
    INDEX 00 25:27:46
    INDEX 01 25:29:46
REM LEADOUT 28:39:63
